<?xml version="1.0" encoding="UTF-8" standalone="no"?>
<!-- Created with Inkscape (http://www.inkscape.org/) -->

<svg
   xmlns:dc="http://purl.org/dc/elements/1.1/"
   xmlns:cc="http://creativecommons.org/ns#"
   xmlns:rdf="http://www.w3.org/1999/02/22-rdf-syntax-ns#"
   xmlns:svg="http://www.w3.org/2000/svg"
   xmlns="http://www.w3.org/2000/svg"
   xmlns:sodipodi="http://sodipodi.sourceforge.net/DTD/sodipodi-0.dtd"
   xmlns:inkscape="http://www.inkscape.org/namespaces/inkscape"
   width="44"
   height="44"
   viewBox="0 0 44 44.000001"
   id="svg3398"
   version="1.1"
   inkscape:version="0.91 r13725"
   sodipodi:docname="footer-nav-item-4.svg">
  <defs
     id="defs3400" />
  <sodipodi:namedview
     id="base"
     pagecolor="#ffffff"
     bordercolor="#666666"
     borderopacity="1.0"
     inkscape:pageopacity="0.0"
     inkscape:pageshadow="2"
     inkscape:zoom="2.8"
     inkscape:cx="-188.81261"
     inkscape:cy="-62.791074"
     inkscape:document-units="px"
     inkscape:current-layer="g3369"
     showgrid="false"
     units="px"
     inkscape:window-width="1920"
     inkscape:window-height="1017"
     inkscape:window-x="-8"
     inkscape:window-y="-8"
     inkscape:window-maximized="1" />
  <metadata
     id="metadata3403">
    <rdf:RDF>
      <cc:Work
         rdf:about="">
        <dc:format>image/svg+xml</dc:format>
        <dc:type
           rdf:resource="http://purl.org/dc/dcmitype/StillImage" />
        <dc:title />
      </cc:Work>
    </rdf:RDF>
  </metadata>
  <g
     inkscape:label="Layer 1"
     inkscape:groupmode="layer"
     id="layer1"
     transform="translate(0,-1008.3622)">
    <g
       id="g3364"
       transform="translate(-412.42417,614.79282)">
      <g
         id="g3369"
         transform="translate(10.85914,-42.426407)">
        <path
           id="path3339"
           d="m 423.45913,441.99579 c 3.84646,0 7.05192,3.20543 7.05192,7.05175 0,3.84644 -3.20541,7.05188 -7.05192,7.05188 -3.84594,0 -7.05137,-3.20544 -7.05137,-7.05188 0,-3.84628 3.20548,-7.05175 7.05137,-7.05175 l 0,0 0,0 z m 12.60779,29.59527 c -7.90645,3.09857 -16.13319,3.31226 -25.00141,0 -0.1068,-7.2654 3.41907,-11.753 7.90654,-13.46204 l 4.59398,7.58557 4.80816,-7.37197 c 4.27374,1.81614 7.69273,6.19672 7.69273,13.24848 l 0,0 z m 0,0 z"
           inkscape:connector-curvature="0"
           style="fill:#272636" />
      </g>
    </g>
  </g>
</svg>
