<?xml version="1.0" encoding="UTF-8" standalone="no"?>
<svg
   xmlns:dc="http://purl.org/dc/elements/1.1/"
   xmlns:cc="http://creativecommons.org/ns#"
   xmlns:rdf="http://www.w3.org/1999/02/22-rdf-syntax-ns#"
   xmlns:svg="http://www.w3.org/2000/svg"
   xmlns="http://www.w3.org/2000/svg"
   xmlns:sodipodi="http://sodipodi.sourceforge.net/DTD/sodipodi-0.dtd"
   xmlns:inkscape="http://www.inkscape.org/namespaces/inkscape"
   version="1.1"
   id="svg3398"
   viewBox="0 0 44 44.000001"
   height="44"
   width="44"
   inkscape:version="0.91 r13725"
   sodipodi:docname="footer-nav-item-2.svg">
  <sodipodi:namedview
     pagecolor="#ffffff"
     bordercolor="#666666"
     borderopacity="1"
     objecttolerance="10"
     gridtolerance="10"
     guidetolerance="10"
     inkscape:pageopacity="0"
     inkscape:pageshadow="2"
     inkscape:window-width="1920"
     inkscape:window-height="1017"
     id="namedview9"
     showgrid="false"
     inkscape:zoom="5.3636364"
     inkscape:cx="-1.0254237"
     inkscape:cy="22"
     inkscape:window-x="-8"
     inkscape:window-y="-8"
     inkscape:window-maximized="1"
     inkscape:current-layer="svg3398" />
  <defs
     id="defs3400" />
  <metadata
     id="metadata3403">
    <rdf:RDF>
      <cc:Work
         rdf:about="">
        <dc:format>image/svg+xml</dc:format>
        <dc:type
           rdf:resource="http://purl.org/dc/dcmitype/StillImage" />
        <dc:title />
      </cc:Work>
    </rdf:RDF>
  </metadata>
  <g
     transform="matrix(0.8888813,0,0,0.8888813,2.4446079,-893.86969)"
     id="layer1">
    <g
       transform="translate(-412.42417,614.79282)"
       id="g3364">
      <g
         transform="translate(10.85914,-42.426407)"
         id="g3369">
        <path
           style="fill:#272636"
           d="m 441.39901,462.28995 c -0.51173,2.0494 -2.11741,3.5516 -4.0549,4.0508 0.41502,1.9292 -0.22856,4.0165 -1.86116,5.3857 -1.63134,1.369 -3.82655,1.6628 -5.69508,0.9526 -0.80849,1.8044 -2.57028,3.1268 -4.70724,3.2984 -2.137,0.1707 -4.09218,-0.8542 -5.18601,-2.5064 -1.72802,0.9996 -3.94264,1.0577 -5.77748,-0.033 -1.83542,-1.0905 -2.81297,-3.0483 -2.72046,-5.0177 -1.99498,-0.1847 -3.82569,-1.4102 -4.66669,-3.3525 -0.84172,-1.9422 -0.4733,-4.0928 0.77273,-5.6376 -1.50964,-1.2966 -2.26748,-3.3467 -1.79695,-5.4063 0.46988,-2.0593 2.04639,-3.5921 3.97446,-4.1279 -0.45431,-1.921 0.1481,-4.0205 1.75301,-5.4209 1.60427,-1.4004 3.79193,-1.7368 5.67477,-1.0627 0.77272,-1.8193 2.50743,-3.1757 4.6403,-3.3881 2.13297,-0.2129 4.10914,0.7748 5.23598,2.4047 1.70645,-1.0313 3.91974,-1.1337 5.77684,-0.077 1.99505,1.133 3.0179,3.2859 2.78809,5.4042 2.16263,0.071 4.18404,1.3695 5.04596,3.4722 0.80314,1.9579 0.39144,4.1003 -0.88429,5.6218 1.4826,1.3249 2.19924,3.3896 1.68812,5.4397 z m -26.23331,4.9841 c 0.40226,0.057 0.86326,-0.2312 1.38182,-0.8653 0.74709,-0.6923 1.49612,-1.4129 2.24447,-2.1633 0.0568,-0.057 0.11498,-0.115 0.17308,-0.1731 0.0568,0.058 0.0865,0.1162 0.0865,0.1731 l 0,1.8172 c 0.0561,0.8072 0.74712,1.2114 2.0721,1.2114 l 5.09407,0 c 1.66917,0.115 2.619,-1.0965 2.84961,-3.6343 l -0.77751,0 c -0.11559,0.8084 -0.48947,1.2411 -1.12226,1.298 l -4.40376,0 c -0.46107,-0.057 -0.69028,-0.2596 -0.69028,-0.6058 l 0,-0.7789 c -0.0582,-1.0384 -0.49009,-1.5859 -1.29535,-1.6441 -0.40351,0 -0.80649,0.2597 -1.20874,0.7789 -1.03641,1.0384 -1.78472,1.8468 -2.24515,2.4228 -0.2305,0.1163 -0.2886,0.058 -0.17232,-0.173 0.22913,-0.6341 0.60438,-1.3846 1.12216,-2.2498 0.11501,-0.23 0.2008,-0.403 0.25894,-0.5192 l -3.1943,0 c -0.80717,1.7888 -1.23855,3.0583 -1.29532,3.8074 0.0568,0.8072 0.43206,1.2398 1.12227,1.298 z m 17.52783,-17.6529 -7.68459,0 0,-1.2981 -2.93543,0 0,1.2981 -7.59802,0 0,1.1249 7.59802,0 0,1.125 -6.56236,0 0,5.5382 6.56236,0 0,1.5576 c -3.62629,0 -6.30346,-0.087 -8.03008,-0.2596 l 0.60443,3.1152 c 3.56811,-0.2879 8.28898,-0.9803 14.16048,-2.0769 0.34538,0.4044 0.51788,0.6639 0.51788,0.7789 0,0.2893 -0.2022,0.5191 -0.60449,0.6923 l 0.0866,0.4326 c 2.01392,-0.1148 3.10772,-0.7207 3.28084,-1.8172 0.11491,-0.4611 -0.48948,-1.2981 -1.81316,-2.5095 0.86322,-0.1731 1.29535,-0.6923 1.29535,-1.5576 l 0,-2.0768 c 0,-0.057 0,-0.115 0,-0.1731 -0.11628,-0.6342 -0.57602,-1.1817 -1.38197,-1.6441 l -5.18043,0 0,-1.125 7.68459,0 0,-1.1249 z m -1.55429,13.1531 c -0.46089,-0.5193 -0.92136,-0.749 -1.38103,-0.6922 -0.34552,0 -1.00797,0.2028 -1.98621,0.6058 -0.46114,0.173 -0.80662,0.2595 -1.03576,0.2595 -0.34548,0.1731 -0.83557,-0.5192 -1.46832,-2.0768 l -2.59002,1.1249 c 0.74701,1.6739 1.40961,2.423 1.98552,2.25 0.22993,0 0.6045,-0.1434 1.12299,-0.4327 1.49601,-0.6341 2.41747,-0.9519 2.76299,-0.9519 0.92003,-0.2299 1.35141,1.2696 1.29467,4.4997 l 3.28141,-1.5576 c -0.57663,-1.2115 -1.2385,-2.2201 -1.98624,-3.0287 z m -12.60623,-7.6149 3.5405,0 0,1.1249 -3.5405,0 0,-1.1249 z m 0,-2.2499 3.5405,0 0,1.2114 -3.5405,0 0,-1.2114 z m 10.10218,0.6923 0,0.5191 -3.62625,0 0,-1.2114 3.02193,0 c 0.40222,0 0.60432,0.2312 0.60432,0.6923 z m 0,2.0768 c 0,0.4042 -0.2021,0.6057 -0.60435,0.6057 l -3.02194,0 0,-1.1249 3.62625,0 0,0.5192 z m -1.46764,2.5095 c 0.34548,0.2893 0.60445,0.5192 0.77747,0.6923 -0.28933,0 -0.72074,0 -1.29528,0 -0.74907,0.058 -1.29532,0.087 -1.6408,0.087 l 0,-1.5576 4.23071,0 -2.0721,0.7788 z"
           id="path3375"
           inkscape:connector-curvature="0" />
      </g>
    </g>
  </g>
</svg>
