<?xml version="1.0" encoding="UTF-8" standalone="no"?>
<svg
   xmlns:dc="http://purl.org/dc/elements/1.1/"
   xmlns:cc="http://creativecommons.org/ns#"
   xmlns:rdf="http://www.w3.org/1999/02/22-rdf-syntax-ns#"
   xmlns:svg="http://www.w3.org/2000/svg"
   xmlns="http://www.w3.org/2000/svg"
   xmlns:sodipodi="http://sodipodi.sourceforge.net/DTD/sodipodi-0.dtd"
   xmlns:inkscape="http://www.inkscape.org/namespaces/inkscape"
   version="1.1"
   id="svg3398"
   viewBox="0 0 44 44.000001"
   height="44"
   width="44"
   inkscape:version="0.91 r13725"
   sodipodi:docname="footer-nav-item-3.svg">
  <sodipodi:namedview
     pagecolor="#ffffff"
     bordercolor="#666666"
     borderopacity="1"
     objecttolerance="10"
     gridtolerance="10"
     guidetolerance="10"
     inkscape:pageopacity="0"
     inkscape:pageshadow="2"
     inkscape:window-width="1445"
     inkscape:window-height="480"
     id="namedview9"
     showgrid="false"
     inkscape:zoom="5.3636364"
     inkscape:cx="-1.0254237"
     inkscape:cy="22"
     inkscape:window-x="0"
     inkscape:window-y="0"
     inkscape:window-maximized="0"
     inkscape:current-layer="svg3398" />
  <defs
     id="defs3400" />
  <metadata
     id="metadata3403">
    <rdf:RDF>
      <cc:Work
         rdf:about="">
        <dc:format>image/svg+xml</dc:format>
        <dc:type
           rdf:resource="http://purl.org/dc/dcmitype/StillImage" />
        <dc:title />
      </cc:Work>
    </rdf:RDF>
  </metadata>
  <g
     transform="matrix(0.88888864,0,0,0.88888864,2.4444499,-893.87725)"
     id="layer1">
    <g
       transform="translate(-412.42417,614.79282)"
       id="g3364">
      <g
         transform="translate(10.85914,-42.426407)"
         id="g3369">
        <path
           style="fill:#272636"
           d="m 437.76838,459.36232 c -0.94227,3.64545 -2.39474,6.81797 -4.31706,9.42927 -2.43043,3.30156 -5.60839,5.69872 -9.44543,7.1248 -0.14229,0.0529 -0.29161,0.0794 -0.44082,0.0794 -0.14932,0 -0.29864,-0.0265 -0.44093,-0.0794 -3.8371,-1.42614 -7.01501,-3.8233 -9.44543,-7.1248 -1.92232,-2.6113 -3.37484,-5.78382 -4.31706,-9.42927 -1.58761,-6.14256 -1.18429,-11.4754 -1.16631,-11.69949 0.0487,-0.60817 0.51053,-1.09934 1.10831,-1.17873 4.5467,-0.60405 7.92253,-2.21898 9.95387,-3.46737 2.21101,-1.35885 3.35802,-2.59261 3.36935,-2.60487 0.24212,-0.26604 0.58211,-0.41608 0.93941,-0.41608 0.3573,0 0.69718,0.15273 0.93936,0.41871 0.009,0.01 1.15592,1.24339 3.36692,2.60218 2.03134,1.24845 5.40717,2.86338 9.95393,3.46737 0.59778,0.0794 1.0596,0.57062 1.10831,1.17874 0.0179,0.22409 0.42113,5.55698 -1.16642,11.69954 z m -1.3418,-10.47243 c -6.78025,-1.14745 -11.07807,-4.27077 -12.86156,-5.82511 -1.78345,1.55423 -6.08143,4.67728 -12.86064,5.82489 -0.0337,1.7797 0.0501,5.67085 1.14988,9.88664 1.90653,7.3087 5.84501,12.19781 11.71076,14.54005 5.88498,-2.35005 9.82967,-7.26258 11.72868,-14.60927 1.08637,-4.20293 1.16779,-8.05097 1.13288,-9.8172 z m -11.6974,13.39799 c -2.02386,1.90483 -3.60504,0.003 -3.55671,0.007 l -3.7902,-3.79026 c -0.50163,-0.50162 -0.50163,-1.31492 0,-1.81654 0.50167,-0.50162 1.31491,-0.50162 1.81653,0 l 3.79021,3.79037 6.3617,-6.36181 c 0.50162,-0.50162 1.31486,-0.50162 1.81643,0 0.50156,0.50162 0.50162,1.31491 0,1.81653 0,0 -6.36159,6.36171 -6.43796,6.35467 z"
           id="path3387"
           inkscape:connector-curvature="0" />
      </g>
    </g>
  </g>
</svg>
