<?xml version="1.0" encoding="UTF-8" standalone="no"?>
<svg
   xmlns:dc="http://purl.org/dc/elements/1.1/"
   xmlns:cc="http://creativecommons.org/ns#"
   xmlns:rdf="http://www.w3.org/1999/02/22-rdf-syntax-ns#"
   xmlns:svg="http://www.w3.org/2000/svg"
   xmlns="http://www.w3.org/2000/svg"
   xmlns:sodipodi="http://sodipodi.sourceforge.net/DTD/sodipodi-0.dtd"
   xmlns:inkscape="http://www.inkscape.org/namespaces/inkscape"
   version="1.1"
   id="svg3398"
   viewBox="0 0 44 44.000001"
   height="44"
   width="44"
   inkscape:version="0.91 r13725"
   sodipodi:docname="footer-nav-item-1.svg">
  <sodipodi:namedview
     pagecolor="#ffffff"
     bordercolor="#666666"
     borderopacity="1"
     objecttolerance="10"
     gridtolerance="10"
     guidetolerance="10"
     inkscape:pageopacity="0"
     inkscape:pageshadow="2"
     inkscape:window-width="1920"
     inkscape:window-height="1017"
     id="namedview11"
     showgrid="false"
     inkscape:zoom="5.3636364"
     inkscape:cx="-1.0254237"
     inkscape:cy="22"
     inkscape:window-x="-8"
     inkscape:window-y="-8"
     inkscape:window-maximized="1"
     inkscape:current-layer="svg3398" />
  <defs
     id="defs3400" />
  <metadata
     id="metadata3403">
    <rdf:RDF>
      <cc:Work
         rdf:about="">
        <dc:format>image/svg+xml</dc:format>
        <dc:type
           rdf:resource="http://purl.org/dc/dcmitype/StillImage" />
        <dc:title />
      </cc:Work>
    </rdf:RDF>
  </metadata>
  <g
     transform="matrix(0.88888889,0,0,0.88888889,2.4444418,-893.87751)"
     id="layer1">
    <g
       transform="translate(-412.42417,614.79282)"
       id="g3364">
      <g
         transform="translate(10.85914,-42.426407)"
         id="g3369">
        <circle
           r="18"
           cy="457.99579"
           cx="423.56503"
           id="path3362"
           style="fill:#ff2a2a;fill-opacity:1" />
        <g
           id="text3358"
           style="font-style:normal;font-weight:normal;font-size:27.62464142px;line-height:125%;font-family:sans-serif;letter-spacing:0px;word-spacing:0px;fill:#ffffff;fill-opacity:1;stroke:none;stroke-width:1px;stroke-linecap:butt;stroke-linejoin:miter;stroke-opacity:1">
          <path
             id="path3434"
             style="font-style:normal;font-variant:normal;font-weight:normal;font-stretch:normal;font-family:Arial;-inkscape-font-specification:Arial;fill:#ffffff;fill-opacity:1"
             d="m 422.59386,452.76222 0,6.25871 8.52479,0 0,-6.25871 -8.52479,0 z m -0.53955,-6.58243 0.32373,-0.21582 q 1.51072,0.97118 2.37399,1.94236 0.97118,0.86327 0.75536,1.72654 -0.10791,0.86327 -0.53954,1.18699 -0.43164,0.32373 -0.53954,0.32373 -0.32373,0 -0.53955,-1.187 -0.32372,-1.40281 -1.83445,-3.7768 z m -1.07908,15.10722 q 0.1079,-2.4819 0.1079,-5.28753 0,-2.91353 -0.1079,-4.85589 l 1.61863,0.97118 4.85589,0 q 0.75536,-1.94236 1.29491,-3.6689 0.53954,-1.83445 0.75536,-3.02144 l 2.26608,1.40281 q -0.86327,0.53954 -1.83445,2.05027 -0.86327,1.51072 -1.83445,3.23726 l 2.91354,0 0.75536,-1.07909 1.61863,1.29491 -0.75536,0.64745 q 0,5.50335 0.10791,7.12198 l -1.61863,0.75536 0,-1.187 -1.83445,0 0,7.55361 q 0,1.61864 1.2949,1.40282 l 2.374,0 q 0.86327,0 1.07908,-0.97118 0.21582,-1.07909 0.21582,-3.99262 l 0.53955,0 q 0,2.37399 0.21581,3.45308 0.21582,0.97117 1.07909,1.40281 -0.75536,1.2949 -2.58981,1.40281 l -3.56099,0 q -2.26608,0.10791 -2.05026,-2.37399 l 0,-7.87734 -1.94236,0 q -0.64745,8.95643 -8.52479,10.89879 l -0.10791,-0.32373 q 6.47452,-2.69772 7.12198,-10.57506 l -1.83445,0 0,0.97118 -1.61863,0.64745 z m -4.64008,4.74799 q 0,1.83445 0.10791,3.99262 l -1.72654,0.64745 q 0.10791,-2.91353 0.10791,-5.50334 l 0,-15.21514 q 0,-2.58981 -0.10791,-4.64007 l 2.4819,1.07908 -0.86327,0.86327 0,3.02145 q 2.26608,1.07909 2.91354,1.72654 0.75536,0.64745 0.64745,1.51072 -0.10791,0.75536 -0.43164,1.07909 -0.32372,0.32373 -0.43163,0.32373 -0.32373,0 -0.64745,-0.97118 -0.53955,-1.29491 -2.05027,-3.02145 l 0,15.10723 z m -2.91354,-14.35187 q 0.32373,2.80563 0.10791,3.88472 -0.21582,1.07909 -0.86327,1.2949 -0.53954,0.21582 -0.75536,0.21582 -0.32373,0 -0.64745,-0.10791 -0.21582,-0.21581 -0.21582,-0.32372 0,-0.43164 0.53954,-1.187 0.86327,-1.07909 1.40282,-3.77681 l 0.43163,0 z"
             inkscape:connector-curvature="0" />
        </g>
      </g>
    </g>
  </g>
</svg>
