<?xml version="1.0" encoding="UTF-8" standalone="no"?>
<!-- Generator: Adobe Illustrator 16.0.0, SVG Export Plug-In . SVG Version: 6.00 Build 0)  -->

<svg
   xmlns:dc="http://purl.org/dc/elements/1.1/"
   xmlns:cc="http://creativecommons.org/ns#"
   xmlns:rdf="http://www.w3.org/1999/02/22-rdf-syntax-ns#"
   xmlns:svg="http://www.w3.org/2000/svg"
   xmlns="http://www.w3.org/2000/svg"
   xmlns:sodipodi="http://sodipodi.sourceforge.net/DTD/sodipodi-0.dtd"
   xmlns:inkscape="http://www.inkscape.org/namespaces/inkscape"
   version="1.1"
   id="Layer_1"
   x="0px"
   y="0px"
   width="64px"
   height="74px"
   viewBox="0 0 64 74"
   style="enable-background:new 0 0 64 74;"
   xml:space="preserve"
   inkscape:version="0.91 r13725"
   sodipodi:docname="insurance_icon.svg"><metadata
     id="metadata52"><rdf:RDF><cc:Work
         rdf:about=""><dc:format>image/svg+xml</dc:format><dc:type
           rdf:resource="http://purl.org/dc/dcmitype/StillImage" /><dc:title /></cc:Work></rdf:RDF></metadata><defs
     id="defs50" /><sodipodi:namedview
     pagecolor="#ffffff"
     bordercolor="#666666"
     borderopacity="1"
     objecttolerance="10"
     gridtolerance="10"
     guidetolerance="10"
     inkscape:pageopacity="0"
     inkscape:pageshadow="2"
     inkscape:window-width="1920"
     inkscape:window-height="1017"
     id="namedview48"
     showgrid="false"
     inkscape:zoom="3.1891892"
     inkscape:cx="-9.9828903"
     inkscape:cy="1.2068865"
     inkscape:window-x="-8"
     inkscape:window-y="-8"
     inkscape:window-maximized="1"
     inkscape:current-layer="Layer_1" /><g
     id="Stick"
     style="fill:#666666"
     transform="translate(0,4)"><g
       id="g4"
       style="fill:#666666"><path
         style="fill:#666666"
         d="m 32,0 c -1.105,0 -2,0.895 -2,2 l 0,52 c 0,3.313 -2.687,6 -6,6 -3.314,0 -6,-2.687 -6,-6 0,-1.104 -0.896,-2 -2,-2 -1.104,0 -2,0.896 -2,2 0,5.522 4.477,9.999 10,9.999 5.522,0 10,-4.477 10,-9.999 L 34,2 C 34,0.895 33.104,0 32,0 Z"
         id="path6"
         inkscape:connector-curvature="0" /></g></g><g
     id="Umbrella"
     transform="translate(0,4)"><g
       id="g9"><path
         style="clip-rule:evenodd;fill:#88c057;fill-rule:evenodd"
         d="m 54,30 c 5.522,0 10,2.686 10,6 C 64,18.326 49.673,4 32,4 14.326,4 0,18.326 0,36 c 0,-3.314 4.477,-6 10,-6 5.522,0 10,2.686 10,6 0,-3.314 5.372,-6 12,-6 6.627,0 12,2.686 12,6 0,-3.314 4.477,-6 10,-6 z"
         id="path11"
         inkscape:connector-curvature="0" /></g></g><g
     id="Umbrella_1_"
     transform="translate(0,4)"><g
       id="g14"><path
         style="clip-rule:evenodd;fill:#75a64b;fill-rule:evenodd"
         d="m 32,30 c 6.627,0 12,2.686 12,6 C 44,18.326 38.627,4 32,4 25.372,4 20,18.326 20,36 c 0,-3.314 5.372,-6 12,-6 z"
         id="path16"
         inkscape:connector-curvature="0" /></g></g><g
     id="g18" /><g
     id="g20" /><g
     id="g22" /><g
     id="g24" /><g
     id="g26" /><g
     id="g28" /><g
     id="g30" /><g
     id="g32" /><g
     id="g34" /><g
     id="g36" /><g
     id="g38" /><g
     id="g40" /><g
     id="g42" /><g
     id="g44" /><g
     id="g46" /><g
     style="font-style:normal;font-weight:normal;font-size:7.26703835px;line-height:125%;font-family:sans-serif;letter-spacing:0px;word-spacing:0px;fill:#4d4d4d;fill-opacity:1;stroke:none;stroke-width:1px;stroke-linecap:butt;stroke-linejoin:miter;stroke-opacity:1"
     id="text3391"
     transform="matrix(1.7290311,0,0,1.7290311,-27.454509,-38.752087)"><path
       d="m 40.149848,46.911677 3.959968,0 0,2.675462 -0.53935,0 0,-0.269675 -1.192249,0 0,0.958057 2.341917,0 0,0.482577 -1.930307,0 q 0.652898,1.085797 1.98708,1.710308 -0.219998,0.305159 -0.354835,0.525157 -1.334183,-0.809025 -2.043855,-2.185788 l 0,2.746429 -0.51806,0 0,-2.774816 q -0.858703,1.547084 -2.150306,2.35611 -0.163224,-0.198708 -0.397416,-0.4329 1.263216,-0.695478 2.050952,-1.9445 l -1.85934,0 0,-0.482577 2.35611,0 0,-0.958057 -1.170959,0 0,0.319352 -0.53935,0 0,-2.725139 z M 37.6589,50.041329 q 0.95096,-1.419343 1.476117,-3.441908 l 0.525157,0.156128 q -0.290965,0.936767 -0.631607,1.752889 l 0,5.010283 -0.510964,0 0,-3.938679 q -0.305159,0.560641 -0.638705,1.043218 -0.09935,-0.298062 -0.219998,-0.581931 z m 5.911566,-2.654172 -2.881268,0 0,1.454827 2.881268,0 0,-1.454827 z"
       style="font-style:normal;font-variant:normal;font-weight:normal;font-stretch:normal;font-family:'Microsoft YaHei UI';-inkscape-font-specification:'Microsoft YaHei UI';writing-mode:tb-rl;fill:#4d4d4d;fill-opacity:1"
       id="path3619"
       inkscape:connector-curvature="0" /><path
       d="m 39.958237,58.074813 q 0.219998,1.36257 -0.624512,1.525794 -0.234191,0.04968 -0.652898,0.0071 -0.05677,-0.255482 -0.134837,-0.510964 l 0,1.696116 -0.510964,0 0,-6.578657 1.994178,0 0,0.49677 q -0.397416,1.284506 -0.631608,1.972887 0.45419,0.659995 0.560641,1.390957 z m -0.09226,1.930307 2.888364,0 q 0.581931,-1.539988 0.922573,-2.661269 l 0.589028,0.205805 q -0.262579,0.752252 -0.90838,2.455464 l 1.199345,0 0,0.525157 -4.69093,0 0,-0.525157 z m 2.781913,-6.13866 -0.09226,0.212901 q 0.830316,1.398053 2.199982,2.143209 -0.234191,0.283868 -0.390319,0.49677 -1.298699,-0.88709 -2.086435,-2.136112 -0.794832,1.220635 -2.143209,2.199982 -0.134837,-0.184514 -0.369029,-0.447093 1.547085,-1.029024 2.306433,-2.469657 l 0.574834,0 z m -3.519971,5.223183 q 0.489673,-0.04968 0.312255,-1.03612 -0.09935,-0.553544 -0.596124,-1.291603 0.312255,-0.95096 0.624511,-2.058048 l -0.922573,0 0,4.336094 q 0.312255,0.07806 0.581931,0.04968 z m 1.476117,-2.639978 3.26449,0 0,0.510963 -3.26449,0 0,-0.510963 z m -0.319352,1.213538 0.482576,-0.184514 q 0.36903,0.958056 0.674188,1.98708 l -0.553544,0.177418 q -0.262578,-1.05741 -0.60322,-1.979984 z m 1.40515,-0.262578 0.503866,-0.156128 q 0.333546,1.014831 0.532254,1.85934 l -0.567737,0.149031 q -0.177418,-0.97225 -0.468383,-1.852243 z"
       style="font-style:normal;font-variant:normal;font-weight:normal;font-stretch:normal;font-family:'Microsoft YaHei UI';-inkscape-font-specification:'Microsoft YaHei UI';writing-mode:tb-rl;fill:#4d4d4d;fill-opacity:1"
       id="path3621"
       inkscape:connector-curvature="0" /></g></svg>