<?xml version="1.0" encoding="UTF-8" standalone="no"?>
<svg
   xmlns:dc="http://purl.org/dc/elements/1.1/"
   xmlns:cc="http://creativecommons.org/ns#"
   xmlns:rdf="http://www.w3.org/1999/02/22-rdf-syntax-ns#"
   xmlns:svg="http://www.w3.org/2000/svg"
   xmlns="http://www.w3.org/2000/svg"
   xmlns:sodipodi="http://sodipodi.sourceforge.net/DTD/sodipodi-0.dtd"
   xmlns:inkscape="http://www.inkscape.org/namespaces/inkscape"
   version="1.1"
   id="svg4804"
   viewBox="0 0 44 44.000001"
   height="44"
   width="44"
   inkscape:version="0.91 r13725"
   sodipodi:docname="key.svg">
  <sodipodi:namedview
     pagecolor="#ffffff"
     bordercolor="#666666"
     borderopacity="1"
     objecttolerance="10"
     gridtolerance="10"
     guidetolerance="10"
     inkscape:pageopacity="0"
     inkscape:pageshadow="2"
     inkscape:window-width="1920"
     inkscape:window-height="1017"
     id="namedview7"
     showgrid="false"
     inkscape:zoom="4.9166667"
     inkscape:cx="-10.372881"
     inkscape:cy="24"
     inkscape:window-x="-8"
     inkscape:window-y="-8"
     inkscape:window-maximized="1"
     inkscape:current-layer="svg4804" />
  <defs
     id="defs4806" />
  <metadata
     id="metadata4809">
    <rdf:RDF>
      <cc:Work
         rdf:about="">
        <dc:format>image/svg+xml</dc:format>
        <dc:type
           rdf:resource="http://purl.org/dc/dcmitype/StillImage" />
        <dc:title></dc:title>
      </cc:Work>
    </rdf:RDF>
  </metadata>
  <rect
     style="fill:#e6e6e6;fill-opacity:1"
     id="rect4135"
     width="44"
     height="44"
     x="0"
     y="4.8849813e-015" />
  <g
     transform="translate(-2,-1006.3622)"
     id="layer1">
    <path
       id="path4220"
       d="m 24.000005,1012.3622 a 7.2649868,7.2649868 0 0 0 -7.26499,7.265 7.2649868,7.2649868 0 0 0 6.57065,7.2252 l 0,17.5098 1.453,0 0,-2.3763 4.48575,0 0,-1.453 -4.48575,0 0,-3.3903 3.27492,0 0,-1.453 -3.27492,0 0,-8.8409 a 7.2649868,7.2649868 0 0 0 6.50632,-7.2215 7.2649868,7.2649868 0 0 0 -7.26498,-7.265 z m 0,1.453 a 5.8119894,5.8119894 0 0 1 5.81199,5.812 5.8119894,5.8119894 0 0 1 -5.81199,5.812 5.8119894,5.8119894 0 0 1 -5.81199,-5.812 5.8119894,5.8119894 0 0 1 5.81199,-5.812 z"
       style="fill:#ff0000;fill-opacity:1"
       inkscape:connector-curvature="0" />
  </g>
</svg>
